# xmcd
#
# Track frame offsets:
#	150
#	11687
#	29926
#	51800
#	69842
#	87443
#	102297
#	127695
#	146962
#	177514
#	218617
#	248489
#	261757
#	292320
#	317579
#	339876
#
# Disc length: 4733 seconds
#
# Revision: 1
# Processed by: cddbd v1.5.2PL0 Copyright (c) Steve Scherf et al.
# Submitted via: audiograbber 1.83.01
#
DISCID=ea127b10
DTITLE=Bernreuther,Bayer and Kossowska - United Blues Experience - The Cologne Co
DTITLE=ncert
DYEAR=2009
DGENRE=Blues
TTITLE0=Midnight sun
TTITLE1=Just a silly love song
TTITLE2=Fishing blues
TTITLE3=I want to be free
TTITLE4=Bring me flowers
TTITLE5=Rainbowrider
TTITLE6=Me and the devil blues
TTITLE7=Listen to your heart
TTITLE8=Help me
TTITLE9=Little red rooster
TTITLE10=Not again
TTITLE11=Loved another woman
TTITLE12=Hey Joe
TTITLE13=One time for love
TTITLE14=Alabama train
TTITLE15=New morning
EXTD=
EXTT0=
EXTT1=
EXTT2=
EXTT3=
EXTT4=
EXTT5=
EXTT6=
EXTT7=
EXTT8=
EXTT9=
EXTT10=
EXTT11=
EXTT12=
EXTT13=
EXTT14=
EXTT15=
PLAYORDER=
